# Blender 3.3.1
# www.blender.org
mtllib cube.mtl
o Cube.001
v 0.500000 -0.500000 -0.500000
v -0.500000 -0.500000 -0.500000
v -0.500000 0.500000 -0.500000
v 0.500000 0.500000 -0.500000
v 0.500000 0.500000 0.500000
v -0.500000 0.500000 0.500000
v -0.500000 -0.500000 0.500000
v 0.500000 -0.500000 0.500000
vn -0.0000 -0.0000 -1.0000
vn -0.0000 1.0000 -0.0000
vn -1.0000 -0.0000 -0.0000
vn -0.0000 -0.0000 1.0000
vn 1.0000 -0.0000 -0.0000
vn -0.0000 -1.0000 -0.0000
vt -0.000363 0.999893
vt 0.999628 -0.000156
vt 0.999795 0.999587
vt 0.000095 0.000000
vt 0.999408 0.000569
vt 0.999795 -0.000306
vt 0.999988 0.000458
vt 0.999583 0.000759
vt -0.000485 0.000112
vt 0.999531 1.000351
vt -0.000311 0.000301
vt 0.999628 0.999737
vt -0.000768 1.000194
vt 0.998827 1.000372
vt -0.000265 0.999737
vt 0.999125 1.000652
vt -0.000942 1.000005
vt -0.001066 1.000372
vt 0.998951 1.000463
vt -0.001066 0.000478
vt -0.000099 -0.000306
vt 0.998827 0.000478
vt -0.000265 -0.000156
vt -0.000099 0.999587
s 1
usemtl Material.001
f 1/1/1 2/4/1 3/7/1 4/10/1
f 5/13/2 4/11/2 3/8/2 6/16/2
f 6/17/3 3/9/3 2/5/3 7/19/3
f 7/20/4 8/22/4 5/14/4 6/18/4
f 8/23/5 1/2/5 4/12/5 5/15/5
f 7/21/6 2/6/6 1/3/6 8/24/6
